<?xml version="1.0" encoding="utf-8"?>
<!-- Generator: Adobe Illustrator 27.5.0, SVG Export Plug-In . SVG Version: 6.00 Build 0)  -->
<svg version="1.1" xmlns="http://www.w3.org/2000/svg" xmlns:xlink="http://www.w3.org/1999/xlink" x="0px" y="0px"
	 viewBox="0 0 3710 3710" style="enable-background:new 0 0 3710 3710;" xml:space="preserve">
<g id="Background">
	<g>
		<g>
			<rect style="fill:#FFFFFF;" width="3710" height="3710"/>
		</g>
	</g>
</g>
<g id="Illustration">
	<g>
		<linearGradient id="SVGID_1_" gradientUnits="userSpaceOnUse" x1="3413.2583" y1="3609.6362" x2="1363.2102" y2="1396.8859">
			<stop  offset="0" style="stop-color:#DAE3FE"/>
			<stop  offset="1" style="stop-color:#E9EFFD"/>
		</linearGradient>
		<path style="fill:url(#SVGID_1_);" d="M3127.571,2348.673c-281.692,658.421-1025.267,941.228-1607.869,893.009
			c-159.074-13.166-479.135-39.656-729.041-275.984c-479.927-453.853-406.014-1402.531,53.414-1961.06
			c59.165-71.927,468.695-553.83,1106.872-547.38c467.238,4.723,795.188,268.659,835.065,301.541
			c50.376,41.538,161.485,140.246,261.621,296.839C3282.917,1423.578,3303.6,1937.225,3127.571,2348.673z"/>
		<g>
			<g>
				<g style="opacity:0.3;">
					<path style="fill:#BDD0FB;" d="M2761.017,799.769c-0.282-5.01,3.262-9.528,8.324-10.347
						c11.071-1.795,22.385-3.133,33.625-3.982c5.469-0.413,10.237,3.685,10.65,9.152c0.004,0.066,0.007,0.13,0.011,0.193
						c0.303,5.386-3.761,10.047-9.165,10.455c-10.68,0.805-21.426,2.079-31.942,3.782c-5.412,0.878-10.514-2.799-11.39-8.213
						C2761.072,800.462,2761.037,800.114,2761.017,799.769z M2847.41,795.544c-0.022-0.387-0.021-0.782,0.003-1.179
						c0.336-5.473,5.047-9.638,10.52-9.302c11.242,0.693,22.565,1.874,33.654,3.51c5.425,0.8,9.161,5.824,8.377,11.271
						c-0.802,5.425-5.85,9.172-11.271,8.372c-10.541-1.554-21.298-2.675-31.982-3.332
						C2851.636,804.573,2847.689,800.499,2847.41,795.544z M2932.585,810.447c-0.062-1.104,0.06-2.237,0.389-3.358
						c1.549-5.259,7.066-8.272,12.327-6.725c10.783,3.169,21.564,6.848,32.041,10.935c5.108,1.996,7.627,7.753,5.642,12.858
						c-1.993,5.107-7.751,7.634-12.858,5.642c-9.949-3.881-20.184-7.374-30.425-10.385
						C2935.562,818.198,2932.814,814.521,2932.585,810.447z M3012.305,844.028c-0.103-1.824,0.297-3.697,1.257-5.408
						c2.683-4.781,8.736-6.482,13.517-3.799c9.808,5.508,19.495,11.503,28.793,17.822c4.528,3.084,5.707,9.256,2.63,13.793
						c-3.082,4.534-9.258,5.711-13.793,2.63c-8.829-6.001-18.03-11.698-27.352-16.928
						C3014.288,850.413,3012.489,847.302,3012.305,844.028z M3082.533,894.543c-0.144-2.558,0.696-5.169,2.55-7.217
						c3.678-4.068,9.958-4.383,14.022-0.704c8.321,7.526,16.438,15.515,24.119,23.745c3.745,4.005,3.532,10.289-0.48,14.032
						c-4.008,3.741-10.29,3.526-14.034-0.482c-7.301-7.824-15.016-15.417-22.923-22.569
						C3083.769,899.523,3082.675,897.059,3082.533,894.543z M3139.834,959.33c-0.187-3.313,1.289-6.643,4.203-8.691
						c4.488-3.152,10.678-2.072,13.833,2.414c6.461,9.194,12.61,18.782,18.269,28.495c2.761,4.741,1.157,10.817-3.582,13.578
						c-4.735,2.76-10.815,1.157-13.576-3.58c-5.379-9.229-11.218-18.338-17.357-27.074
						C3140.517,962.898,3139.935,961.117,3139.834,959.33z M3183.894,1321.244c-0.077-1.373,0.131-2.781,0.66-4.145
						c3.86-9.944,7.338-20.191,10.334-30.455c1.537-5.263,7.05-8.285,12.31-6.747c5.265,1.535,8.286,7.048,6.75,12.312
						c-3.155,10.81-6.817,21.603-10.88,32.075c-1.985,5.113-7.738,7.647-12.849,5.663
						C3186.47,1328.493,3184.106,1325.011,3183.894,1321.244z M3181.325,1035.156c-0.232-4.112,2.131-8.101,6.156-9.747
						c5.077-2.077,10.873,0.355,12.95,5.429c4.256,10.402,8.111,21.116,11.458,31.844c1.608,5.241-1.283,10.803-6.521,12.436
						c-5.234,1.633-10.802-1.287-12.437-6.523c-3.176-10.189-6.838-20.362-10.878-30.24
						C3181.625,1037.306,3181.386,1036.226,3181.325,1035.156z M3205.9,1237.6c-0.037-0.654-0.012-1.322,0.086-1.996
						c1.538-10.563,2.636-21.332,3.274-32.007c0.329-5.474,5.031-9.647,10.503-9.32c5.472,0.329,9.672,5.026,9.32,10.503
						c-0.672,11.233-1.829,22.565-3.444,33.68c-0.79,5.427-5.83,9.187-11.254,8.397
						C3209.634,1246.167,3206.16,1242.216,3205.9,1237.6z M3204.839,1118.349c-0.282-5.003,3.251-9.516,8.305-10.344
						c5.412-0.888,10.516,2.779,11.408,8.191c1.816,11.079,3.18,22.386,4.045,33.606c0.008,0.069,0.012,0.141,0.016,0.211
						c0.303,5.378-3.75,10.035-9.146,10.453c-5.469,0.423-10.244-3.665-10.665-9.133c-0.825-10.657-2.121-21.397-3.849-31.923
						C3204.898,1119.054,3204.859,1118.699,3204.839,1118.349z"/>
					<path style="fill:#BDD0FB;" d="M3152.89,1383.688c-0.11-1.952,0.352-3.957,1.455-5.749c2.683-4.36,5.316-8.849,7.837-13.342
						c2.679-4.783,8.732-6.489,13.513-3.808c4.785,2.679,6.497,8.734,3.806,13.515c-2.647,4.727-5.419,9.447-8.241,14.036
						c-2.872,4.67-8.989,6.129-13.657,3.257C3154.723,1389.827,3153.067,1386.825,3152.89,1383.688z"/>
				</g>
				<g style="opacity:0.3;">
					<path style="fill:#BDD0FB;" d="M2906.219,1559.132c-0.27-4.784,2.963-9.191,7.794-10.247c5-1.092,10.063-2.307,15.043-3.613
						c5.306-1.39,10.732,1.782,12.123,7.086c1.396,5.327-1.784,10.732-7.086,12.123c-5.244,1.373-10.575,2.654-15.84,3.805
						c-5.357,1.17-10.648-2.224-11.82-7.581C2906.317,1560.179,2906.249,1559.653,2906.219,1559.132z"/>
					<path style="fill:#BDD0FB;" d="M2437.325,1203.553c-0.257-4.561-0.437-9.144-0.541-13.747
						c-0.122-5.482,4.221-10.027,9.703-10.151c5.482-0.124,10.047,4.245,10.153,9.701c0.241,10.624,0.911,21.214,2.009,31.595
						c0.568,5.459-3.376,10.34-8.828,10.918c-5.456,0.577-10.344-3.378-10.92-8.83
						C2438.221,1216.616,2437.692,1210.06,2437.325,1203.553z M2439.184,1137.442c-0.031-0.553-0.016-1.12,0.049-1.691
						c1.248-11.007,2.979-22.084,5.142-32.921c1.072-5.376,6.302-8.866,11.677-7.794c5.378,1.074,8.882,6.313,7.793,11.681
						c-2.054,10.293-3.695,20.815-4.885,31.275c-0.618,5.448-5.536,9.363-10.982,8.745
						C2443.098,1146.183,2439.451,1142.183,2439.184,1137.442z M2447.983,1274.491c-0.263-4.674,2.821-9.021,7.529-10.186
						c5.326-1.316,10.706,1.934,12.024,7.257c2.515,10.183,5.503,20.396,8.885,30.359c1.753,5.196-1.022,10.831-6.213,12.592
						c-5.195,1.761-10.833-1.021-12.594-6.215c-3.559-10.491-6.705-21.249-9.356-31.973
						C2448.106,1275.713,2448.017,1275.098,2447.983,1274.491z M2458.043,1054.42c-0.071-1.259,0.102-2.55,0.539-3.813
						c3.633-10.454,7.758-20.879,12.258-30.984c2.231-5.008,8.098-7.259,13.106-5.029c5.012,2.231,7.265,8.096,5.031,13.108
						c-4.272,9.594-8.19,19.493-11.639,29.422c-1.798,5.18-7.459,7.919-12.637,6.119
						C2460.787,1061.883,2458.263,1058.317,2458.043,1054.42z M2477.416,1354.301c-0.216-3.833,1.816-7.611,5.47-9.44
						c4.903-2.455,10.869-0.471,13.325,4.433c4.692,9.375,9.854,18.681,15.34,27.661c2.859,4.679,1.385,10.791-3.298,13.649
						c-4.679,2.857-10.787,1.381-13.645-3.298c-5.777-9.454-11.211-19.251-16.153-29.123
						C2477.829,1356.935,2477.49,1355.614,2477.416,1354.301z M2523.651,1425.723c-0.172-3.065,1.074-6.167,3.633-8.257
						c4.249-3.467,10.503-2.835,13.97,1.414c6.651,8.146,13.722,16.107,21.015,23.661c3.815,3.939,3.707,10.223-0.243,14.039
						c-3.946,3.809-10.229,3.699-14.041-0.245c-7.676-7.95-15.117-16.327-22.114-24.9
						C2524.495,1429.748,2523.765,1427.744,2523.651,1425.723z M2584.356,1485.366c-0.131-2.331,0.554-4.716,2.113-6.695
						c3.389-4.309,9.632-5.053,13.941-1.661c8.271,6.511,16.904,12.742,25.667,18.522c4.575,3.019,5.842,9.172,2.818,13.755
						c-3.021,4.575-9.177,5.839-13.756,2.818c-9.218-6.084-18.308-12.642-27.011-19.491
						C2585.799,1490.779,2584.511,1488.111,2584.356,1485.366z M2656.619,1530.347c-0.091-1.615,0.212-3.273,0.959-4.836
						c2.366-4.946,8.293-7.036,13.239-4.669c9.489,4.542,19.277,8.728,29.096,12.444c5.128,1.941,7.712,7.678,5.774,12.798
						c-1.94,5.13-7.672,7.714-12.8,5.773c-10.343-3.913-20.652-8.323-30.641-13.103
						C2658.862,1537.132,2656.816,1533.845,2656.619,1530.347z M2737.025,1558.377c-0.051-0.908,0.025-1.839,0.237-2.77
						c1.218-5.345,6.541-8.692,11.885-7.473c10.231,2.331,20.695,4.257,31.11,5.721c5.431,0.764,9.207,5.802,8.448,11.215
						c-0.763,5.43-5.786,9.213-11.217,8.449c-10.963-1.542-21.981-3.569-32.751-6.025
						C2740.322,1566.489,2737.268,1562.683,2737.025,1558.377z M2821.567,1568.052c-0.011-0.203-0.015-0.409-0.015-0.615
						c0.025-5.482,4.492-9.908,9.974-9.881c7.74,0.036,15.571-0.166,23.285-0.601c2.792-0.157,5.578-0.347,8.351-0.564
						c5.468-0.427,10.247,3.659,10.672,9.126c0.54,5.526-3.657,10.244-9.122,10.672c-2.92,0.229-5.845,0.426-8.784,0.592
						c-8.112,0.457-16.355,0.669-24.495,0.63C2826.156,1577.388,2821.86,1573.25,2821.567,1568.052z"/>
					<path style="fill:#BDD0FB;" d="M2494.853,977.391c-0.111-1.971,0.362-3.992,1.48-5.794c2.839-4.565,5.828-9.156,8.884-13.645
						c3.085-4.534,9.262-5.708,13.794-2.622c4.532,3.087,5.711,9.257,2.622,13.794c-2.902,4.265-5.741,8.626-8.437,12.959
						c-2.892,4.655-9.015,6.084-13.672,3.189C2496.669,983.495,2495.029,980.508,2494.853,977.391z"/>
				</g>
				<g>
					<path style="fill:#BDD0FB;" d="M2610.584,984.291c-1.46,1.336-1.914,3.452-1.127,5.268l22.443,51.827
						c-14.893,21.769-26.422,46.068-33.787,72.193l-54.127,15.997c-1.899,0.561-3.232,2.265-3.321,4.243l-3.027,67.678
						c-0.088,1.978,1.089,3.794,2.928,4.522l52.483,20.765c5.005,26.678,14.318,51.91,27.209,74.921l-26.98,49.618
						c-0.945,1.739-0.684,3.887,0.652,5.348l45.715,49.995c1.337,1.462,3.453,1.914,5.269,1.127l51.827-22.443
						c21.768,14.893,46.069,26.422,72.194,33.787l15.998,54.128c0.561,1.898,2.264,3.232,4.242,3.32l67.678,3.027
						c1.978,0.089,3.794-1.088,4.521-2.929l20.765-52.484c26.678-5.004,51.91-14.317,74.92-27.208l49.619,26.98
						c1.738,0.945,3.886,0.683,5.347-0.652l49.995-45.715c1.462-1.336,1.914-3.452,1.127-5.268l-22.444-51.827
						c14.894-21.768,26.423-46.068,33.787-72.193l54.128-15.998c1.898-0.561,3.232-2.264,3.321-4.242l3.026-67.678
						c0.089-1.978-1.087-3.794-2.928-4.522l-52.483-20.765c-5.003-26.678-14.317-51.91-27.209-74.921l26.979-49.617
						c0.947-1.739,0.684-3.888-0.652-5.348l-45.716-49.995c-1.336-1.461-3.451-1.913-5.268-1.127l-51.827,22.443
						c-21.768-14.893-46.069-26.422-72.194-33.787l-15.998-54.128c-0.561-1.898-2.265-3.232-4.243-3.32l-67.677-3.027
						c-1.978-0.088-3.794,1.087-4.523,2.928l-20.765,52.483c-26.678,5.004-51.909,14.318-74.92,27.208l-49.618-26.979
						c-1.74-0.946-3.886-0.684-5.348,0.652L2610.584,984.291z"/>
					
						<linearGradient id="SVGID_00000034776530489142961660000000018952578631986567_" gradientUnits="userSpaceOnUse" x1="2768.2004" y1="1180.9474" x2="2904.4229" y2="1180.9474">
						<stop  offset="0" style="stop-color:#DAE3FE"/>
						<stop  offset="1" style="stop-color:#E9EFFD"/>
					</linearGradient>
					<path style="fill:url(#SVGID_00000034776530489142961660000000018952578631986567_);" d="M2768.308,1184.732
						c-1.867-33.142,20.831-63.614,54.293-70.488c36.783-7.555,72.849,16.222,80.406,53.002c3.665,17.819,0.163,35.995-9.847,51.178
						c-10.009,15.187-25.335,25.567-43.153,29.225c-36.783,7.555-72.849-16.222-80.406-53.002
						C2768.92,1191.333,2768.493,1188.018,2768.308,1184.732z M2888.446,1178.121c-0.144-2.56-0.475-5.122-1-7.68
						c-5.792-28.199-33.45-46.429-61.647-40.638c-28.201,5.793-46.443,33.443-40.639,61.649
						c5.791,28.199,33.449,46.429,61.647,40.638c13.663-2.807,25.412-10.764,33.088-22.408
						C2886.133,1200.218,2889.072,1189.236,2888.446,1178.121z"/>
					
						<linearGradient id="SVGID_00000124135011739512757220000012170920750596426941_" gradientUnits="userSpaceOnUse" x1="2669.9187" y1="1181.9286" x2="3004.8018" y2="1181.9286">
						<stop  offset="0" style="stop-color:#DAE3FE"/>
						<stop  offset="1" style="stop-color:#E9EFFD"/>
					</linearGradient>
					<path style="fill:url(#SVGID_00000124135011739512757220000012170920750596426941_);" d="M2670.188,1191.653
						c-0.321-5.692-0.357-11.433-0.099-17.206l0,0c0.08-1.817,0.192-3.633,0.33-5.447c0.689-8.944,2.088-17.819,4.176-26.488
						c0.028-0.118,0.057-0.236,0.085-0.354c0.082-0.335,0.164-0.67,0.25-1.005c0.161-0.652,0.331-1.302,0.5-1.951
						c0.448-1.707,1.94-2.861,3.613-2.958c0.406-0.023,0.824,0.018,1.239,0.126c2.121,0.557,3.382,2.731,2.829,4.85
						c-2.87,10.916-4.58,22.213-5.085,33.58c-2.534,56.461,24.764,107.471,67.91,137.765c23.996,16.853,52.897,27.294,84.3,28.697
						c5.507,0.248,10.986,0.215,16.415-0.093c36.537-2.062,70.968-16.507,98.337-41.536c31.441-28.748,49.805-68.021,51.708-110.579
						c3.922-87.897-64.356-162.534-152.21-166.462c-5.417-0.243-10.826-0.21-16.204,0.095c-23.307,1.317-46.066,7.718-66.623,18.826
						c-0.531,0.286-1.098,0.441-1.663,0.471c-1.487,0.084-2.963-0.678-3.718-2.077c-1.037-1.934-0.33-4.34,1.608-5.383
						c21.582-11.661,45.477-18.385,69.945-19.767c5.646-0.32,11.323-0.354,17.008-0.102
						c92.239,4.124,163.916,82.546,159.794,174.752c-1.998,44.681-21.277,85.906-54.284,116.087
						c-28.733,26.277-64.879,41.44-103.236,43.606c-5.7,0.321-11.451,0.355-17.23,0.099c-44.683-1.999-85.91-21.277-116.091-54.282
						C2687.511,1266.176,2672.349,1230.019,2670.188,1191.653z"/>
				</g>
			</g>
			<g>
				<g style="opacity:0.3;">
					<path style="fill:#BDD0FB;" d="M2480.733,476.205c-0.149-2.649,1.441-5.186,4.07-6.119c4.904-1.745,9.929-3.366,14.934-4.815
						c3.252-0.942,6.65,0.93,7.596,4.185c0.957,3.254-0.933,6.653-4.185,7.596c-4.769,1.381-9.558,2.925-14.239,4.59
						c-3.187,1.136-6.694-0.532-7.833-3.722C2480.875,477.352,2480.765,476.776,2480.733,476.205z"/>
					<path style="fill:#BDD0FB;" d="M2526.44,464.54c-0.175-3.103,2.025-5.896,5.158-6.393c8.852-1.411,17.878-2.381,26.823-2.885
						c1.883-0.106,3.774-0.191,5.672-0.259c3.388-0.116,6.109,2.718,6.349,5.913c0.119,3.385-2.529,6.224-5.91,6.346
						c-1.814,0.063-3.621,0.144-5.421,0.245c-8.532,0.481-17.141,1.406-25.582,2.749c-3.347,0.534-6.486-1.746-7.022-5.089
						C2526.476,464.956,2526.452,464.747,2526.44,464.54z M2590.073,462.306c-0.016-0.29-0.015-0.587,0.01-0.882
						c0.296-3.376,3.269-5.873,6.643-5.581c10.826,0.938,21.689,2.557,32.283,4.813c3.314,0.704,5.418,3.978,4.722,7.274
						c-0.707,3.315-3.959,5.426-7.273,4.722c-10.108-2.151-20.47-3.694-30.794-4.591
						C2592.589,467.793,2590.242,465.302,2590.073,462.306z M2652.347,475.569c-0.044-0.777,0.062-1.575,0.329-2.355
						c1.11-3.199,4.607-4.89,7.807-3.78c10.248,3.561,20.389,7.801,30.13,12.608c3.042,1.499,4.286,5.166,2.784,8.213
						c-1.496,3.035-5.175,4.283-8.21,2.786c-9.291-4.584-18.954-8.628-28.729-12.021
						C2654.04,480.179,2652.482,477.976,2652.347,475.569z M2709.457,503.737c-0.072-1.268,0.251-2.566,0.997-3.709
						c1.862-2.828,5.668-3.616,8.496-1.754c9.082,5.976,17.868,12.564,26.121,19.591c2.577,2.197,2.879,6.07,0.691,8.643
						c-2.194,2.58-6.063,2.89-8.646,0.694c-7.863-6.698-16.248-12.985-24.906-18.681
						C2710.521,507.411,2709.562,505.611,2709.457,503.737z M2757.953,544.998c-0.1-1.77,0.567-3.571,1.975-4.865
						c2.492-2.29,6.37-2.125,8.664,0.367c7.342,7.996,14.264,16.519,20.566,25.335c1.979,2.756,1.336,6.586-1.42,8.555
						c-2.756,1.969-6.588,1.333-8.554-1.42c-6.016-8.412-12.616-16.543-19.625-24.17
						C2758.562,547.713,2758.03,546.364,2757.953,544.998z M2794.961,596.772c-0.129-2.293,1.045-4.566,3.198-5.737
						c2.974-1.616,6.695-0.512,8.314,2.462c5.18,9.539,9.813,19.493,13.764,29.581c1.228,3.166-0.324,6.712-3.475,7.948
						c-3.151,1.236-6.712-0.321-7.945-3.472c-3.769-9.622-8.184-19.107-13.122-28.201
						C2795.246,598.528,2795.01,597.648,2794.961,596.772z M2818.181,656.007c-0.162-2.87,1.721-5.546,4.606-6.281
						c3.282-0.836,6.621,1.147,7.459,4.429c2.672,10.484,4.719,21.273,6.089,32.07c0.37,3.374-1.959,6.432-5.318,6.855
						c-3.359,0.426-6.426-1.953-6.855-5.312c-1.3-10.3-3.254-20.591-5.802-30.587
						C2818.261,656.789,2818.203,656.396,2818.181,656.007z M2824.312,751.021c-0.02-0.353-0.01-0.716,0.035-1.082
						c1.066-8.877,1.663-17.967,1.777-27.022c0.025-1.372,0.033-2.718,0.024-4.062c-0.011-3.389,2.719-6.145,6.106-6.159
						c3.394-0.02,6.248,2.734,6.162,6.104c0.003,1.433-0.001,2.864-0.027,4.302c-0.121,9.46-0.748,18.99-1.867,28.298
						c-0.405,3.364-3.455,5.761-6.818,5.357C2826.708,756.398,2824.477,753.936,2824.312,751.021z"/>
				</g>
				<g style="opacity:0.3;">
					<path style="fill:#BDD0FB;" d="M2309.353,738.18c-0.188-3.342,2.349-6.226,5.7-6.46c3.376-0.235,6.308,2.314,6.541,5.693
						c0.705,10.172,2.036,20.386,3.959,30.361c0.607,3.31-1.532,6.543-4.861,7.183c-3.328,0.641-6.541-1.539-7.183-4.862
						c-2.01-10.461-3.412-21.169-4.15-31.831C2309.356,738.237,2309.354,738.207,2309.353,738.18z M2309.067,706.809
						c-0.012-0.222-0.013-0.44-0.001-0.666c0.539-10.662,1.734-21.4,3.547-31.914c0.58-3.338,3.746-5.576,7.084-4.999
						c3.343,0.573,5.568,3.765,5.005,7.083c-1.732,10.033-2.87,20.279-3.389,30.453c-0.169,3.381-3.052,5.984-6.433,5.812
						C2311.717,712.418,2309.241,709.894,2309.067,706.809z M2321.213,799.66c-0.153-2.715,1.525-5.298,4.235-6.176
						c3.216-1.042,6.675,0.722,7.719,3.944c3.149,9.704,6.911,19.296,11.191,28.514c1.415,3.084,0.09,6.719-2.985,8.142
						c-3.069,1.426-6.719,0.091-8.145-2.981c-4.485-9.662-8.428-19.721-11.725-29.893
						C2321.337,800.694,2321.242,800.175,2321.213,799.66z M2319.758,645.078c-0.039-0.696,0.04-1.411,0.252-2.119
						c3.089-10.226,6.843-20.365,11.157-30.13c1.367-3.099,4.989-4.5,8.089-3.133c3.088,1.368,4.491,4.989,3.13,8.086
						c-4.111,9.312-7.688,18.976-10.636,28.727c-0.981,3.24-4.404,5.076-7.645,4.095
						C2321.573,649.837,2319.899,647.577,2319.758,645.078z M2347.582,856.445c-0.122-2.167,0.913-4.334,2.884-5.557
						c2.88-1.791,6.66-0.906,8.448,1.968c5.369,8.644,11.324,17.047,17.709,24.98c2.128,2.642,1.704,6.502-0.936,8.624
						c-2.639,2.122-6.502,1.704-8.624-0.935c-6.688-8.32-12.937-17.13-18.569-26.191
						C2347.933,858.429,2347.637,857.435,2347.582,856.445z M2386.803,905.249c-0.093-1.659,0.483-3.348,1.731-4.629
						c2.364-2.425,6.248-2.475,8.672-0.111c7.305,7.122,15.104,13.862,23.177,20.032c2.695,2.059,3.206,5.91,1.15,8.597
						c-2.056,2.692-5.901,3.205-8.59,1.15c-8.467-6.469-16.645-13.533-24.299-20.995
						C2387.503,908.179,2386.887,906.726,2386.803,905.249z M2436.593,943.255c-0.066-1.166,0.197-2.362,0.837-3.445
						c1.713-2.922,5.473-3.898,8.394-2.183c8.791,5.17,17.979,9.841,27.305,13.883c3.099,1.349,4.532,4.96,3.183,8.065
						c-1.348,3.108-4.957,4.534-8.067,3.186c-9.776-4.242-19.415-9.139-28.639-14.557
						C2437.77,947.123,2436.704,945.234,2436.593,943.255z"/>
					<path style="fill:#BDD0FB;" d="M2345.192,587.517c-0.067-1.181,0.207-2.393,0.859-3.485c2.691-4.506,5.53-8.951,8.432-13.218
						c1.906-2.797,5.722-3.525,8.522-1.62c2.789,1.91,3.519,5.719,1.619,8.522c-2.77,4.067-5.476,8.31-8.047,12.608
						c-1.737,2.908-5.505,3.854-8.409,2.117C2346.356,591.356,2345.303,589.481,2345.192,587.517z"/>
				</g>
				<g>
					<path style="fill:#BDD0FB;" d="M2424.572,588.152c-0.977,0.893-1.281,2.31-0.754,3.525l15.018,34.681
						c-9.965,14.566-17.681,30.827-22.609,48.308l-36.219,10.705c-1.271,0.375-2.163,1.515-2.222,2.839l-2.026,45.287
						c-0.059,1.324,0.728,2.539,1.959,3.026l35.12,13.894c3.349,17.852,9.581,34.736,18.207,50.134l-18.054,33.202
						c-0.632,1.164-0.457,2.601,0.437,3.579l30.59,33.454c0.895,0.978,2.31,1.281,3.526,0.754l34.68-15.018
						c14.566,9.966,30.827,17.681,48.309,22.609l10.705,36.22c0.375,1.27,1.515,2.163,2.839,2.222l45.287,2.025
						c1.324,0.059,2.539-0.728,3.026-1.959l13.895-35.12c17.852-3.348,34.736-9.58,50.133-18.207l33.203,18.054
						c1.163,0.632,2.6,0.457,3.578-0.436l33.455-30.591c0.978-0.893,1.28-2.31,0.754-3.525l-15.019-34.681
						c9.967-14.566,17.681-30.827,22.609-48.308l36.22-10.705c1.27-0.376,2.163-1.515,2.222-2.839l2.025-45.287
						c0.059-1.323-0.728-2.538-1.959-3.026l-35.12-13.895c-3.348-17.852-9.581-34.737-18.207-50.134l18.053-33.201
						c0.633-1.164,0.458-2.602-0.436-3.579l-30.59-33.454c-0.894-0.977-2.31-1.281-3.526-0.754l-34.68,15.017
						c-14.566-9.966-30.827-17.68-48.309-22.608l-10.705-36.22c-0.375-1.269-1.515-2.163-2.839-2.221l-45.286-2.026
						c-1.324-0.059-2.539,0.728-3.026,1.96l-13.895,35.12c-17.852,3.349-34.735,9.58-50.133,18.206l-33.202-18.053
						c-1.164-0.633-2.601-0.457-3.579,0.436L2424.572,588.152z"/>
					
						<linearGradient id="SVGID_00000042709470280582282370000007592336825793780123_" gradientUnits="userSpaceOnUse" x1="2529.2161" y1="719.7505" x2="2621.9937" y2="719.7505">
						<stop  offset="0" style="stop-color:#DAE3FE"/>
						<stop  offset="1" style="stop-color:#E9EFFD"/>
					</linearGradient>
					<path style="fill:url(#SVGID_00000042709470280582282370000007592336825793780123_);" d="M2529.289,722.257
						c-0.556-9.877,2.055-19.633,7.597-28.042c6.819-10.344,17.26-17.413,29.397-19.905c25.045-5.147,49.614,11.046,54.767,36.1
						c5.108,25.096-11.054,49.627-36.105,54.771c-12.138,2.495-24.52,0.112-34.86-6.707c-10.347-6.818-17.418-17.259-19.908-29.399
						C2529.713,726.807,2529.417,724.526,2529.289,722.257z M2609.684,717.846c-0.093-1.648-0.307-3.305-0.646-4.969
						c-3.791-18.428-21.862-30.339-40.29-26.553c-8.924,1.834-16.609,7.032-21.62,14.641c-5.017,7.612-6.76,16.716-4.938,25.647l0,0
						c1.834,8.927,7.035,16.608,14.642,21.623c7.612,5.017,16.719,6.769,25.649,4.934
						C2599.243,749.725,2610.619,734.453,2609.684,717.846z"/>
					
						<linearGradient id="SVGID_00000108293300325820874900000008365099089027163284_" gradientUnits="userSpaceOnUse" x1="2460.8044" y1="720.4006" x2="2691.842" y2="720.4006">
						<stop  offset="0" style="stop-color:#DAE3FE"/>
						<stop  offset="1" style="stop-color:#E9EFFD"/>
					</linearGradient>
					<path style="fill:url(#SVGID_00000108293300325820874900000008365099089027163284_);" d="M2460.987,726.986
						c-0.218-3.874-0.24-7.79-0.068-11.746c0.349-7.856,1.498-15.685,3.421-23.288c0.089-0.341,0.178-0.682,0.267-1.023
						c0.691-2.636,2.996-4.418,5.579-4.567c0.628-0.035,1.273,0.027,1.912,0.195c3.275,0.86,5.216,4.217,4.369,7.488
						c-1.863,7.081-2.968,14.394-3.292,21.736l0,0.003c-0.019,0.403-0.032,0.808-0.046,1.208
						c-0.611,17.383,3.135,34.261,10.707,49.42c4.111,8.228,9.356,15.952,15.659,22.972c0.051,0.057,0.102,0.114,0.153,0.171
						c0.16,0.174,0.314,0.348,0.473,0.519c18.613,20.352,44.036,32.242,71.588,33.473c3.566,0.162,7.11,0.139,10.625-0.059
						c23.653-1.335,45.942-10.688,63.665-26.891c20.353-18.613,32.236-44.036,33.468-71.585c1.22-27.534-8.34-53.935-26.947-74.291
						c-18.612-20.352-44.035-32.242-71.587-33.473c-3.506-0.159-7.008-0.136-10.487,0.06c-15.091,0.853-29.823,4.996-43.129,12.187
						c-0.821,0.442-1.695,0.681-2.568,0.727c-2.296,0.129-4.576-1.047-5.741-3.206c-1.602-2.984-0.503-6.699,2.483-8.312
						c14.889-8.045,31.375-12.683,48.253-13.64c3.898-0.22,7.813-0.245,11.734-0.07c30.829,1.379,59.271,14.68,80.095,37.453
						c20.818,22.771,31.549,52.271,30.148,83.11c-1.376,30.826-14.674,59.268-37.451,80.089
						c-19.822,18.13-44.76,28.591-71.223,30.085c-3.928,0.221-7.897,0.247-11.884,0.069
						C2511.482,833.131,2464.277,785.394,2460.987,726.986z"/>
				</g>
			</g>
		</g>
		<g>
			<path style="fill:#7D97F4;" d="M2341.436,1067.708c-8.009-0.188-14.454-6.656-14.601-14.665
				c-1.493-82.112-27.106-489.824-386.162-575.024c-399.745-94.855-582.676,311.663-582.676,311.663S863.4,599.975,768.545,1108.121
				c-310.123,74.43-390.695,479.439-188.986,677.341c32.049,31.445,75.006,49.217,119.904,49.622l1942.177,17.495
				c57.001,0.514,107.546-36.796,123.741-91.452C2826.048,1556.363,2905.566,1080.917,2341.436,1067.708z"/>
			<path style="fill:#91B3FA;" d="M2297.048,1076.417c-7.995-0.191-14.43-6.638-14.593-14.633
				c-1.59-78.757-26.951-456.81-365.126-536.06c-377.985-88.579-550.961,291.045-550.961,291.045s-467.676-177.159-557.366,297.371
				c-290.431,68.838-367.949,440.491-184.116,627.158c32.227,32.724,76.117,51.33,122.045,51.738l1828.295,16.266
				c57.131,0.507,107.754-36.97,123.829-91.795C2756.073,1523.051,2823.737,1089.022,2297.048,1076.417z"/>
		</g>
		<g>
			<path style="fill:#BDD0FB;" d="M3254.458,1212.996c5.303-12.755-11.909-24.65-24.866-17.264
				c-131.569,74.995-456.866,310.891-468.507,814.869c-14.604,632.316-200.825,833.243-409.044,940.215
				c0,0,265.491-22.699,463.516-225.089C3301.75,2228.813,3160.168,1439.792,3254.458,1212.996z"/>
			<path style="fill:#FFFFFF;" d="M3134.335,1391.456c-25.853,66.401-50.162,133.273-71.581,200.94
				c-21.829,67.539-41.263,135.722-58.195,204.434c-16.624,68.776-31.747,137.873-43.441,207.567
				c-12.056,69.63-20.634,139.773-28.962,210.237c-8.778,70.364-17.158,141.311-33.959,211.383
				c-16.691,69.942-43.349,138.876-83.935,200.929c-10.137,15.461-20.647,30.808-32.122,45.42
				c-11.158,14.816-23.096,29.175-35.336,43.329c-24.653,28.203-51.578,54.94-80.757,79.72
				c-58.519,49.433-126.074,90.708-198.348,123.152c-7.607,3.415-17.249,0.679-21.537-6.111c-4.21-6.666-1.691-14.763,5.604-18.286
				l0.052-0.025c17.298-8.335,34.457-16.837,51.083-25.994c8.406-4.46,16.548-9.245,24.798-13.89
				c8.022-4.92,16.283-9.561,24.111-14.699c31.726-20.069,61.688-42.121,89.521-66.071
				c55.889-47.599,103.489-103.057,142.385-162.271c19.059-29.824,35.49-60.923,49.052-93.13
				c13.534-32.22,24.193-65.512,32.646-99.45c16.919-67.912,25.884-138.047,35.246-208.328
				c9.469-70.281,19.544-140.827,32.961-210.765c6.598-34.984,13.925-69.832,21.972-104.518c3.907-17.367,8.204-34.65,12.464-51.937
				c4.453-17.244,9.016-34.461,13.741-51.634c19.05-68.661,40.528-136.683,64.48-203.917
				c24.328-67.118,50.727-133.568,80.074-198.898c0.84-1.868,3.292-2.717,5.479-1.898
				C3133.954,1387.54,3135.043,1389.627,3134.335,1391.456z"/>
		</g>
		<g>
			<g>
				<path style="fill:#91B3FA;" d="M2657.398,2659.257c7.697,20.301,33.625,26.144,49.48,11.312
					c87.486-81.836,313.914-335.585,285.144-748.134c-24.295-348.379-4.362-539.593,10.702-625.77
					c3.185-18.223-18.745-29.92-32.129-17.151C2822.919,1420.398,2378.51,1923.642,2657.398,2659.257z"/>
				<path style="fill:#FFFFFF;" d="M2686.795,2658.992c0.453,0.291,0.939,0.541,1.458,0.747c4.35,1.728,9.278-0.398,11.007-4.748
					c1.959-4.932,195.759-498.774,183.86-984.697c-0.116-4.676-4.001-8.378-8.683-8.268c-4.681,0.116-8.381,4.002-8.268,8.683
					c11.813,482.386-180.719,973.124-182.665,978.024C2681.982,2652.564,2683.449,2656.844,2686.795,2658.992z"/>
			</g>
		</g>
		<g>
			<g>
				
					<linearGradient id="SVGID_00000002355014674116073120000007346515160791738532_" gradientUnits="userSpaceOnUse" x1="-6418.1963" y1="2054.4065" x2="-3327.2495" y2="2335.4016" gradientTransform="matrix(-1 0 0 1 -2781.5291 0)">
					<stop  offset="0" style="stop-color:#09005D"/>
					<stop  offset="1" style="stop-color:#1A0F91"/>
				</linearGradient>
				<path style="fill:url(#SVGID_00000002355014674116073120000007346515160791738532_);" d="M2798.232,2867.273
					c0,22.058-18.065,40.105-40.144,40.105H587.274c-22.079,0-40.144-18.047-40.144-40.105l-18.064-1247.507
					c0-22.057,25.988-65.12,73.616-61.884l2121.559-54.895c27.702-0.717,54.488,9.946,74.105,29.499
					c19.618,19.554,30.351,46.289,29.697,73.965L2798.232,2867.273z"/>
				
					<linearGradient id="SVGID_00000096023602182525476610000004874399316773487493_" gradientUnits="userSpaceOnUse" x1="462.6611" y1="3004.6326" x2="2671.4358" y2="1622.8873">
					<stop  offset="0" style="stop-color:#4F52FF"/>
					<stop  offset="1" style="stop-color:#4042E2"/>
				</linearGradient>
				<path style="fill:url(#SVGID_00000096023602182525476610000004874399316773487493_);" d="M2758.6,2828.796
					c0,20.888-17.091,37.979-37.979,37.979H639.625c-20.888,0-37.978-17.091-37.978-37.979l-17.046-1132.498
					c2.008-68.151,61.757-92.645,97.976-91.199l2033.32-54.551c19.462-0.522,38.28,6.976,52.064,20.726
					c13.784,13.749,21.366,32.566,20.877,52.029L2758.6,2828.796z"/>
				<g>
					<path style="fill:#91B3FA;" d="M624.135,2288.574c-1.835,0-3.335-1.472-3.362-3.312l-1.346-91.844
						c-0.026-1.856,1.458-3.383,3.312-3.411c1.924-0.1,3.384,1.456,3.411,3.312l1.346,91.844c0.026,1.856-1.457,3.383-3.312,3.411
						H624.135z"/>
					<path style="fill:#91B3FA;" d="M620.832,2063.509c-1.835,0-3.335-1.472-3.362-3.312l-5.167-351.761
						c0.108-23.58,7.373-42.417,21.601-56.048c25.862-24.783,66.335-23.523,68.032-23.474l649.313-17.425
						c0.03-0.002,0.059-0.002,0.092-0.002c1.812,0,3.309,1.446,3.358,3.271c0.049,1.856-1.415,3.401-3.273,3.45l-649.507,17.425
						c-1.828-0.061-39.541-1.223-63.364,21.607c-12.859,12.323-19.431,29.537-19.529,51.16l5.167,351.697
						c0.026,1.856-1.454,3.383-3.312,3.411H620.832z"/>
				</g>
				<path style="opacity:0.24;fill:#91B3FA;" d="M693.327,2765.971c2.179-93.602,1.368-922.474-4.003-994.059
					c-5.371-71.586,106.118-85.012,277.288-93.068c171.169-8.057,1615.394-39.951,1652.58-42.966
					c83.585-6.778,115.851,28.418,92.523,389.379c-13.147,203.439-16.695,539.437-21.486,693.803
					c-1.426,45.964-38.995,82.433-84.98,82.559c-347.54,0.955-1679.556,4.773-1768.229,7.413
					C734.975,2812.071,692.463,2803.086,693.327,2765.971z"/>
			</g>
			
				<linearGradient id="SVGID_00000060010088830486664090000000392363597247019396_" gradientUnits="userSpaceOnUse" x1="-4499.5801" y1="2207.5039" x2="-4463.3389" y2="3512.2258" gradientTransform="matrix(-1 0 0 1 -2781.5291 0)">
				<stop  offset="0" style="stop-color:#09005D"/>
				<stop  offset="1" style="stop-color:#1A0F91"/>
			</linearGradient>
			<path style="fill:url(#SVGID_00000060010088830486664090000000392363597247019396_);" d="M2934.667,2971.05H462.061
				c-4.128,0-7.505-3.377-7.505-7.505v-94.6c0-4.128,3.377-7.505,7.505-7.505h2472.605c4.128,0,7.505,3.377,7.505,7.505v94.6
				C2942.172,2967.673,2938.795,2971.05,2934.667,2971.05z"/>
			<path style="fill:#7D97F4;" d="M834.213,1878.073h1765.921c16.709,0,30.254-13.545,30.254-30.254v-80.915
				c0-16.709-13.545-30.254-30.254-30.254H834.213c-16.709,0-30.254,13.545-30.254,30.254v80.915
				C803.959,1864.528,817.504,1878.073,834.213,1878.073z"/>
			<path style="fill:#7D97F4;" d="M830.54,2741.944H2591.73c21.35,0,38.658-17.308,38.658-38.658v-64.108
				c0-21.35-17.308-38.658-38.658-38.658H830.54c-21.35,0-38.658,17.308-38.658,38.658v64.108
				C791.882,2724.636,809.19,2741.944,830.54,2741.944z"/>
			<path style="fill:#7D97F4;" d="M830.886,2569.407h712.727c21.542,0,39.005-17.463,39.005-39.005v-94.527
				c0-21.542-17.463-39.005-39.005-39.005H830.886c-21.542,0-39.005,17.463-39.005,39.005v94.527
				C791.882,2551.944,809.345,2569.407,830.886,2569.407z"/>
			<path style="fill:#7D97F4;" d="M846.424,2360.117h688.901c26.119,0,47.293-21.174,47.293-47.293v-343.827
				c0-26.119-21.174-47.293-47.293-47.293H846.424c-26.119,0-47.293,21.174-47.293,47.293v343.827
				C799.131,2338.943,820.305,2360.117,846.424,2360.117z"/>
			<path style="fill:#7D97F4;" d="M1668.476,2569.407h914.929c26.119,0,47.293-21.174,47.293-47.293v-555.309
				c0-26.119-21.174-47.293-47.293-47.293h-914.929c-26.119,0-47.293,21.174-47.293,47.293v555.309
				C1621.183,2548.233,1642.357,2569.407,1668.476,2569.407z"/>
		</g>
		<g>
			<g>
				<polygon style="fill:#FFFFFF;" points="1433.65,1118.603 1327.874,1061.594 1379.423,957.538 1312.669,977.501 
					1261.166,1081.544 1366.896,1138.566 				"/>
			</g>
			<g>
				<polygon style="fill:#FFFFFF;" points="1388.037,1871.413 1486,1940.997 1422.044,2037.924 1490.747,2026.322 
					1554.654,1929.403 1456.74,1859.811 				"/>
			</g>
			<path style="fill:#FFFFFF;" d="M1481.557,1910.717c-12.295,1.092-24.733,1.682-37.312,1.682
				c-230.028,0-416.502-186.475-416.502-416.502c0-143.078,72.149-269.293,182.045-344.272c6.508-4.44,8.559-13.098,4.658-19.943
				c-4.273-7.498-8.456-15.037-12.519-22.631c-5.833-10.902-19.922-14.318-30.075-7.26
				c-124.119,86.282-205.381,229.893-205.381,392.513c0,263.866,213.906,477.772,477.773,477.772c15.156,0,30.14-0.739,44.935-2.119
				C1483.975,1950.409,1481.991,1930.638,1481.557,1910.717z"/>
			<path style="fill:#FFFFFF;" d="M1448.416,1016.549c-43.748-0.375-86.14,5.16-126.455,15.804
				c1.038,7.183,1.102,14.692,4.33,21.146c4.259,13.13,8.183,26.315,11.901,39.54c33.863-8.89,69.4-13.644,106.052-13.644
				c229.562-0.001,416.936,187.744,416.503,417.305c-0.31,164.244-95.699,306.151-234.054,373.671
				c-8.455,4.126-12.683,13.795-10.1,22.842c1.954,6.845,3.925,13.689,5.909,20.531c3.324,11.466,16.131,17.251,26.911,12.119
				c161.191-76.756,272.604-241.133,272.604-431.557C1922.018,1231.47,1711.243,1018.804,1448.416,1016.549z"/>
		</g>
		<g>
			<g>
				
					<linearGradient id="SVGID_00000134249842444344022340000018083144890381754528_" gradientUnits="userSpaceOnUse" x1="326.9512" y1="1212.3459" x2="-845.7975" y2="2549.0918" gradientTransform="matrix(-1 0 0 1 2062.8765 0)">
					<stop  offset="0" style="stop-color:#09005D"/>
					<stop  offset="1" style="stop-color:#1A0F91"/>
				</linearGradient>
				<path style="fill:url(#SVGID_00000134249842444344022340000018083144890381754528_);" d="M1588.37,1570.43
					c0,242.716,204.201,439.476,456.095,439.476s467.376-205.358,467.376-448.073c0-242.715-215.482-430.878-467.376-430.878
					S1588.37,1327.716,1588.37,1570.43z"/>
				<g>
					<path style="fill:#91B3FA;" d="M2476.031,1463.572c0.271,0,0.542-0.03,0.813-0.1c1.682-0.433,2.682-2.093,2.236-3.716
						c-4.909-17.758-11.177-35.374-18.635-52.355c-0.68-1.541-2.537-2.246-4.128-1.612c-1.602,0.658-2.349,2.435-1.673,3.983
						c7.344,16.715,13.517,34.057,18.346,51.548C2473.365,1462.677,2474.641,1463.572,2476.031,1463.572z"/>
					<path style="fill:#91B3FA;" d="M2406.334,1326.234c0.658,0,1.325-0.202,1.894-0.61c1.387-1.008,1.664-2.916,0.618-4.25
						c-84.503-107.976-220.619-172.433-364.111-172.433c-61.282,0-120.556,11.973-176.17,35.575
						c-1.59,0.676-2.313,2.472-1.612,4.001c0.698,1.535,2.56,2.228,4.153,1.559c54.808-23.27,113.227-35.065,173.629-35.065
						c141.527,0,275.76,63.557,359.08,170.015C2404.437,1325.819,2405.378,1326.234,2406.334,1326.234z"/>
				</g>
				
					<linearGradient id="SVGID_00000114793670938457145810000012764673557159713714_" gradientUnits="userSpaceOnUse" x1="32.3186" y1="1546.7263" x2="-459.1289" y2="2140.1726" gradientTransform="matrix(-1 0 0 1 2062.8765 0)">
					<stop  offset="0" style="stop-color:#FF928E"/>
					<stop  offset="1" style="stop-color:#FE7062"/>
				</linearGradient>
				<path style="fill:url(#SVGID_00000114793670938457145810000012764673557159713714_);" d="M1650.423,1570.43
					c0,210.097,176.759,380.414,394.8,380.414s404.565-177.759,404.565-387.855c0-210.097-186.524-372.973-404.565-372.973
					S1650.423,1360.333,1650.423,1570.43z"/>
				<path style="opacity:0.78;fill:#FFFFFF;" d="M1692.222,1587.528c0.975,16.148,15.352,28.476,32.11,27.537
					c16.759-0.94,29.554-14.793,28.578-30.941c-0.975-16.148-15.352-28.476-32.11-27.536
					C1704.041,1557.528,1691.246,1571.38,1692.222,1587.528z"/>
				<path style="opacity:0.78;fill:#FFFFFF;" d="M2104.536,1850.352c-16.514,2.906-27.455,18.162-24.439,34.074
					c3.016,15.912,18.849,26.456,35.362,23.549c16.514-2.906,27.455-18.162,24.439-34.073
					C2136.882,1857.988,2121.05,1847.446,2104.536,1850.352z"/>
				<path style="opacity:0.78;fill:#FFFFFF;" d="M1986.347,1226.85c-16.515,2.906-27.457,18.161-24.44,34.074
					c3.016,15.913,18.848,26.455,35.362,23.548c16.513-2.906,27.456-18.162,24.44-34.073
					C2018.693,1234.487,2002.86,1223.945,1986.347,1226.85z"/>
				<path style="opacity:0.78;fill:#FFFFFF;" d="M1888.444,1867.092c-3.09,7.509-2.318,14.54,1.723,15.705
					c4.041,1.164,9.821-3.98,12.91-11.488c3.089-7.509,2.317-14.542-1.724-15.706
					C1897.312,1854.439,1891.531,1859.583,1888.444,1867.092z"/>
				<path style="opacity:0.78;fill:#FFFFFF;" d="M1750.506,1754.67c-6.686,4.873-9.816,11.268-6.989,14.285
					c2.827,3.017,10.537,1.513,17.224-3.359c6.686-4.873,9.815-11.269,6.988-14.285
					C1764.903,1748.294,1757.192,1749.798,1750.506,1754.67z"/>
				<path style="opacity:0.78;fill:#FFFFFF;" d="M1733.181,1419.816c-7.569-3.472-14.901-3.201-16.377,0.606
					c-1.477,3.807,3.462,9.708,11.03,13.181c7.569,3.473,14.902,3.202,16.378-0.606
					C1745.688,1429.19,1740.75,1423.289,1733.181,1419.816z"/>
				<path style="opacity:0.78;fill:#FFFFFF;" d="M2327.865,1713.406c-7.569-3.472-14.901-3.201-16.378,0.606
					c-1.477,3.808,3.462,9.709,11.031,13.181c7.568,3.473,14.901,3.201,16.377-0.606
					C2340.373,1722.781,2335.433,1716.879,2327.865,1713.406z"/>
				<path style="opacity:0.78;fill:#FFFFFF;" d="M1858.83,1294.733c-4.597-6.755-11.01-10.191-14.323-7.676
					c-3.313,2.516-2.272,10.03,2.325,16.785c4.597,6.754,11.011,10.191,14.323,7.676
					C1864.469,1309.002,1863.427,1301.487,1858.83,1294.733z"/>
				<path style="opacity:0.78;fill:#FFFFFF;" d="M2208.868,1843.168c-4.597-6.754-11.011-10.19-14.323-7.675
					c-3.313,2.514-2.272,10.028,2.325,16.783c4.596,6.755,11.01,10.191,14.323,7.676
					C2214.507,1857.437,2213.465,1849.923,2208.868,1843.168z"/>
				
					<linearGradient id="SVGID_00000178906696164512065490000009903195798932992191_" gradientUnits="userSpaceOnUse" x1="2366.4031" y1="747.9296" x2="2134.4312" y2="1897.6978">
					<stop  offset="0" style="stop-color:#E1473D"/>
					<stop  offset="1" style="stop-color:#E9605A"/>
				</linearGradient>
				<path style="fill:url(#SVGID_00000178906696164512065490000009903195798932992191_);" d="M2030.247,1185.725l11.236,382.141
					l408.306-4.877C2454.394,1364.924,2269.85,1190.016,2030.247,1185.725z"/>
				
					<linearGradient id="SVGID_00000065069424440791941150000001105234408319147922_" gradientUnits="userSpaceOnUse" x1="2336.1563" y1="1360.1023" x2="2467.2703" y2="654.1039">
					<stop  offset="0" style="stop-color:#4F52FF"/>
					<stop  offset="1" style="stop-color:#4042E2"/>
				</linearGradient>
				<path style="fill:url(#SVGID_00000065069424440791941150000001105234408319147922_);" d="M2053.158,1548.663l270.798-7.646
					c5.246-0.149,8.602-5.721,6.125-10.172l-14.736-26.477c-2.865-5.15,2.038-11.352,7.904-9.994l225.563,52.182
					c6.901,1.598,6.853,11.195-0.065,13.133l-223.53,62.658c-5.349,1.499-10.078-3.374-8.282-8.535l12.064-34.683
					c1.491-4.286-1.562-8.661-6.138-8.8l-270.133-8.092c-3.762-0.113-6.653-3.149-6.511-6.838l0,0
					C2046.358,1551.745,2049.426,1548.769,2053.158,1548.663z"/>
				<path style="fill:#BDD0FB;" d="M2524.093,1558.519c2.017-1.041,3.284-3.067,3.262-5.37c-0.026-2.755-1.883-4.964-4.625-5.511
					l-48.442-9.64c-1.679-0.334-3.363,0.74-3.752,2.395c-0.394,1.657,0.65,3.266,2.334,3.605l48.442,9.64
					c-50.942,13.531-169.696,46.3-172.029,47.23c-1.587,0.606-2.436,2.424-1.828,3.991c0.603,1.543,2.365,2.289,3.96,1.692
					c3.467-1.161,94.449-26.321,171.426-47.547C2523.284,1558.882,2523.702,1558.72,2524.093,1558.519z"/>
				
					<linearGradient id="SVGID_00000032620014410421081330000003852762919232178574_" gradientUnits="userSpaceOnUse" x1="2058.5615" y1="1278.3623" x2="2250.1899" y2="340.3932">
					<stop  offset="0" style="stop-color:#4F52FF"/>
					<stop  offset="1" style="stop-color:#4042E2"/>
				</linearGradient>
				<path style="fill:url(#SVGID_00000032620014410421081330000003852762919232178574_);" d="M2032.048,1547.086l0.484-230.042
					c-0.08-5.093-5.773-8.259-10.39-5.779l-27.468,14.751c-5.343,2.87-11.664-1.79-10.187-7.51l56.808-219.945
					c1.738-6.728,11.621-6.842,13.524-0.154l61.487,216.06c1.471,5.17-3.612,9.844-8.904,8.185l-35.553-11.139
					c-4.395-1.378-8.94,1.66-9.144,6.108l-16.687,229.659c-0.166,3.656-3.332,6.514-7.13,6.438l0,0
					C2035.129,1553.64,2032.106,1550.71,2032.048,1547.086z"/>
				<path style="fill:#BDD0FB;" d="M2097.44,1293.374c0.384,0,0.772-0.065,1.15-0.207c1.6-0.605,2.396-2.33,1.806-3.877
					c-1.144-3.331-25.817-91.284-46.633-165.705c-0.739-2.632-3.06-4.362-5.966-4.297c-2.836,0.071-5.143,1.914-5.743,4.587
					l-10.586,47.21c-0.366,1.636,0.714,3.255,2.414,3.604c1.682,0.362,3.371-0.682,3.743-2.323l10.587-47.21
					c13.243,49.255,45.378,164.034,46.298,166.293C2094.995,1292.645,2096.183,1293.374,2097.44,1293.374z"/>
				
					<linearGradient id="SVGID_00000122703190948298293780000011945208127714981773_" gradientUnits="userSpaceOnUse" x1="2028.7406" y1="1671.2397" x2="2119.5027" y2="1123.3057">
					<stop  offset="0" style="stop-color:#4F52FF"/>
					<stop  offset="1" style="stop-color:#4042E2"/>
				</linearGradient>
				
					<ellipse style="fill:url(#SVGID_00000122703190948298293780000011945208127714981773_);" cx="2047.263" cy="1559.419" rx="32.463" ry="31.28"/>
				<path style="opacity:0.78;fill:#FFFFFF;" d="M2152.623,1275.701c-3.089,7.509-2.317,14.54,1.724,15.704
					c4.042,1.165,9.821-3.979,12.911-11.487c3.089-7.509,2.317-14.541-1.724-15.706
					C2161.492,1263.049,2155.712,1268.192,2152.623,1275.701z"/>
				<path style="opacity:0.78;fill:#FFFFFF;" d="M2294.96,1381.413c-6.686,4.873-9.815,11.268-6.989,14.284
					c2.825,3.018,10.538,1.513,17.224-3.358c6.687-4.872,9.816-11.268,6.989-14.285
					C2309.357,1375.037,2301.646,1376.542,2294.96,1381.413z"/>
			</g>
		</g>
		<g>
			
				<linearGradient id="SVGID_00000171695150991093625580000010000091003494156221_" gradientUnits="userSpaceOnUse" x1="18912.7734" y1="2769.0671" x2="18559.3066" y2="2970.8215" gradientTransform="matrix(-1 0 0 1 19947.5723 0)">
				<stop  offset="0" style="stop-color:#FEBBBA"/>
				<stop  offset="1" style="stop-color:#FF928E"/>
			</linearGradient>
			<path style="fill:url(#SVGID_00000171695150991093625580000010000091003494156221_);" d="M1088.538,3097.974
				c0.417-0.16,224.618-392.79,254.914-429.739c5.098-6.215,12.985-9.379,20.967-8.428l62.578,7.458l73.516,159.042l-122.476-71.328
				c12.119,83.816-145.217,208.377-199.178,253.828c-5.476,4.613-5.925,12.874-0.98,18.051l21.542,22.551
				c-35.367,35.849-76.178,58.868-122.239,69.515L1088.538,3097.974z"/>
			
				<linearGradient id="SVGID_00000128477407613143634610000002968939217160255112_" gradientUnits="userSpaceOnUse" x1="-10043.5195" y1="-277.2369" x2="-9746.0352" y2="-1119.2661" gradientTransform="matrix(0.8974 -0.4412 0.4412 0.8974 10652.2939 2161.1482)">
				<stop  offset="0" style="stop-color:#09005D"/>
				<stop  offset="1" style="stop-color:#1A0F91"/>
			</linearGradient>
			<path style="fill:url(#SVGID_00000128477407613143634610000002968939217160255112_);" d="M1186.961,3037.238
				c0,0,13.749,4.441,18.404,16.687c2.227,5.859-0.174,12.494-5.269,16.145c-22.639,16.22-97.316,68.585-131.777,78.841
				c-2.825,0.841-5.512-1.715-4.877-4.593c1.769-8.005,7.489-23.992,25.918-47.395l-1.653,3.344
				c-2.092,4.232,2.516,8.639,6.628,6.318C1117.384,3093.573,1164.332,3065.094,1186.961,3037.238z"/>
			
				<linearGradient id="SVGID_00000174578545358733894150000009083626426442909326_" gradientUnits="userSpaceOnUse" x1="18878.5801" y1="2819.3831" x2="20087.9707" y2="2062.2854" gradientTransform="matrix(-1 0 0 1 19947.5723 0)">
				<stop  offset="0" style="stop-color:#FEBBBA"/>
				<stop  offset="1" style="stop-color:#FF928E"/>
			</linearGradient>
			<path style="fill:url(#SVGID_00000174578545358733894150000009083626426442909326_);" d="M1175.866,3194.338
				c0.376-0.241,34.013-81.285,34.389-81.525c30.841-187.777,106.089-348.594,128.28-390.91
				c3.734-7.117,10.818-11.813,18.827-12.497l62.792-5.361l104.182,140.873l-134.376-45.065
				c28.831,79.629-100.042,233.454-143.687,288.885c-4.429,5.625-3.198,13.807,2.694,17.876l25.66,17.725
				c-27.38,42.264-62.688,73.066-105.641,92.814L1175.866,3194.338z"/>
			
				<linearGradient id="SVGID_00000181773409760384972190000000660295675490413960_" gradientUnits="userSpaceOnUse" x1="-10831.7344" y1="3748.5171" x2="-10534.251" y2="2906.488" gradientTransform="matrix(0.7895 -0.6137 0.6137 0.7895 10669.8828 3191.1018)">
				<stop  offset="0" style="stop-color:#09005D"/>
				<stop  offset="1" style="stop-color:#1A0F91"/>
			</linearGradient>
			<path style="fill:url(#SVGID_00000181773409760384972190000000660295675490413960_);" d="M1259.961,3114.941
				c0,0,14.363,1.567,21.4,12.617c3.366,5.287,2.358,12.271-1.892,16.877c-18.888,20.465-81.423,86.86-113.095,103.878
				c-2.597,1.395-5.745-0.564-5.706-3.511c0.111-8.198,2.478-25.011,15.79-51.66l-0.942,3.61c-1.192,4.569,4.213,7.951,7.769,4.846
				C1203.224,3184.19,1243.437,3146.8,1259.961,3114.941z"/>
			<g>
				
					<linearGradient id="SVGID_00000000911546591207928460000006394934378307319438_" gradientUnits="userSpaceOnUse" x1="3623.8315" y1="16981.5273" x2="3886.033" y2="16443.6777" gradientTransform="matrix(-1 0 0 1 12115.873 0)">
					<stop  offset="0" style="stop-color:#E1473D"/>
					<stop  offset="1" style="stop-color:#E9605A"/>
				</linearGradient>
				<path style="fill:url(#SVGID_00000000911546591207928460000006394934378307319438_);" d="M1714.08,2674.376
					c0,0,56.804,84.489,61.465,123.029c4.661,38.54-15.707,51.868-75.162,56.783c-176.927,14.626-264.145-38.4-264.145-38.4
					c-12.103-77.169-20.715-96.801-121.797-138.759c0,0,127.851,10.15,153.582,0.165
					C1493.753,2667.209,1714.08,2674.376,1714.08,2674.376z"/>
			</g>
			<g>
				
					<linearGradient id="SVGID_00000024001943169322211500000017008354696640567188_" gradientUnits="userSpaceOnUse" x1="-11995.5771" y1="-164.5525" x2="-11908.6592" y2="53.481" gradientTransform="matrix(0.9446 -0.3283 0.3283 0.9446 12812.0361 -1699.1722)">
					<stop  offset="0" style="stop-color:#09005D"/>
					<stop  offset="1" style="stop-color:#1A0F91"/>
				</linearGradient>
				<path style="fill:url(#SVGID_00000024001943169322211500000017008354696640567188_);" d="M1487.564,2201.017
					c0,0,39.563-46.81,81.625,10.622c7.618,10.402,36.877,1.82,47.604,23.593c5.538,11.241,17.501,17.627,29.824,15.354
					c30.693-5.661,80.86-6.137,105.63,41.959c18.907,36.712,4.309,58.198-14.59,70.447c-13.881,8.997-18.835,27.262-10.441,41.516
					c8.051,13.671,9.565,32.185-11.224,54.466c-46.586,49.93-138.806-31.686-138.806-31.686l-73.221-173.023L1487.564,2201.017z"/>
				
					<linearGradient id="SVGID_00000137110158443966630450000017150251248958745495_" gradientUnits="userSpaceOnUse" x1="2564.6506" y1="2376.6614" x2="2262.125" y2="2416.9978">
					<stop  offset="0" style="stop-color:#FF928E"/>
					<stop  offset="1" style="stop-color:#FE7062"/>
				</linearGradient>
				<path style="fill:url(#SVGID_00000137110158443966630450000017150251248958745495_);" d="M1560.459,2663.191
					c0,0-66.148-62.987-98.71-104.706c-17.601-22.551-23.128-52.239-14.989-79.663c14.866-50.084,41.285-101.958,43.695-110.031
					c3.693-12.375,77.863-11.86,77.863-11.86s145.952,94.724,203.297,255.18l-64.402,20.05c0,0-38.108-63.933-75.761-104.581
					c0,0,65.153,86.069,67.448,121.304L1560.459,2663.191z"/>
				
					<linearGradient id="SVGID_00000173142140355123494780000011230084792390691518_" gradientUnits="userSpaceOnUse" x1="-9897.2246" y1="2652.7737" x2="-9545.1182" y2="2652.7737" gradientTransform="matrix(1 0 0 1 11551.1094 0)">
					<stop  offset="0" style="stop-color:#FEBBBA"/>
					<stop  offset="1" style="stop-color:#FF928E"/>
				</linearGradient>
				<path style="fill:url(#SVGID_00000173142140355123494780000011230084792390691518_);" d="M1434.425,2688.047l49.704-54.078
					l57.403,15.457c0,0,66.923,10.368,105.225,0c38.302-10.368,38.302-10.368,38.302-10.368l86.556-26.947l13.594,38.419
					c3.452,9.754-0.017,20.583-8.451,26.576c-7.488,5.321-16.266,11.169-21.861,13.617c-11.399,4.987-262.577,1.577-262.577,1.577
					L1434.425,2688.047z"/>
				
					<linearGradient id="SVGID_00000178193954456762197730000012398698448710185863_" gradientUnits="userSpaceOnUse" x1="-11847.1982" y1="1534.0195" x2="-11829.9854" y2="1408.0979" gradientTransform="matrix(0.9974 -0.0717 0.0717 0.9974 13216.9805 105.0094)">
					<stop  offset="0" style="stop-color:#FEBBBA"/>
					<stop  offset="1" style="stop-color:#FF928E"/>
				</linearGradient>
				<path style="fill:url(#SVGID_00000178193954456762197730000012398698448710185863_);" d="M1517.343,2267.753l49.85,92.698
					c-3.291,20.235-54.256,20.805-62.129,8.722c-0.802-1.229-1.26-2.652-1.564-4.088l-29.82-61.938
					c-1.28-6.04,15.277-26.39,20.727-29.291l19.814-10.547C1521.85,2259.249,1490.014,2258.929,1517.343,2267.753z"/>
				<g>
					
						<linearGradient id="SVGID_00000014634489697284378310000018409783641020762506_" gradientUnits="userSpaceOnUse" x1="-10675.0166" y1="-4116.2573" x2="-10512.9521" y2="-4404.6787" gradientTransform="matrix(0.5458 -0.8379 0.8379 0.5458 10797.9961 -4320.769)">
						<stop  offset="0" style="stop-color:#FEBBBA"/>
						<stop  offset="1" style="stop-color:#FF928E"/>
					</linearGradient>
					<path style="fill:url(#SVGID_00000014634489697284378310000018409783641020762506_);" d="M1416.455,2245.998
						c0,0-5.627,31.318,18.988,71.137c24.615,39.819,49.127,38.022,61.581,23.821c12.453-14.201,27.37-37.852,20.583-77.567
						C1510.82,2223.674,1424.958,2206.061,1416.455,2245.998z"/>
					
						<linearGradient id="SVGID_00000080202951779846018060000014383204994071503295_" gradientUnits="userSpaceOnUse" x1="-10640.167" y1="-4367.4272" x2="-10559.1348" y2="-4164.1606" gradientTransform="matrix(0.5458 -0.8379 0.8379 0.5458 10797.9961 -4320.769)">
						<stop  offset="0" style="stop-color:#09005D"/>
						<stop  offset="1" style="stop-color:#1A0F91"/>
					</linearGradient>
					<path style="fill:url(#SVGID_00000080202951779846018060000014383204994071503295_);" d="M1487.809,2267.705
						c0,0-39.858-52.354-70.46-6.715l0.516,15.766c0,0-39.794-1.86-35.478-38.537c4.315-36.678,36.803-61.733,81.842-49.202
						c45.039,12.531,71.356,26.802,76.441,58.072c5.086,31.27-20.447,26.161-20.447,26.161s-9.753-21.576-21.53-23.05
						c-11.777-1.474-7.521,15.594-7.521,15.594L1487.809,2267.705z"/>
					
						<linearGradient id="SVGID_00000029009391374723774940000000312900370193429941_" gradientUnits="userSpaceOnUse" x1="-10640.5186" y1="-4096.8755" x2="-10478.4541" y2="-4385.2949" gradientTransform="matrix(0.5458 -0.8379 0.8379 0.5458 10797.9961 -4320.769)">
						<stop  offset="0" style="stop-color:#FEBBBA"/>
						<stop  offset="1" style="stop-color:#FF928E"/>
					</linearGradient>
					<path style="fill:url(#SVGID_00000029009391374723774940000000312900370193429941_);" d="M1496.955,2266.309
						c0,0-20.647-26.793-1.853-32.353c18.794-5.561,18.092,26.253,16.868,38.088L1496.955,2266.309z"/>
				</g>
			</g>
			<g>
				
					<linearGradient id="SVGID_00000080929181142313342000000011364625920531086006_" gradientUnits="userSpaceOnUse" x1="-9993.2031" y1="2212.731" x2="-10177.4004" y2="2263.2148" gradientTransform="matrix(0.9988 -0.0494 0.0494 0.9988 11509.6406 -55.0328)">
					<stop  offset="0" style="stop-color:#09005D"/>
					<stop  offset="1" style="stop-color:#1A0F91"/>
				</linearGradient>
				<path style="fill:url(#SVGID_00000080929181142313342000000011364625920531086006_);" d="M1598.951,2709.45
					c-0.175,0.008-0.35,0.013-0.526,0.012l-228.617-0.25c-5.651-0.004-10.228-4.591-10.222-10.243
					c0.006-5.653,4.609-10.324,10.245-10.222l228.617,0.249c5.651,0.005,10.228,4.591,10.222,10.243
					C1608.664,2704.716,1604.358,2709.183,1598.951,2709.45z"/>
				
					<linearGradient id="SVGID_00000002368541563569028890000004016820724765562764_" gradientUnits="userSpaceOnUse" x1="1159.6704" y1="2619.0579" x2="2816.335" y2="2479.675">
					<stop  offset="0" style="stop-color:#09005D"/>
					<stop  offset="1" style="stop-color:#1A0F91"/>
				</linearGradient>
				<path style="fill:url(#SVGID_00000002368541563569028890000004016820724765562764_);" d="M1164.292,2501.88h190.394
					c14.045,0,26.829,8.105,32.82,20.809l88.019,186.639h-236.608c-9.051,0-17.184-5.53-20.51-13.948l-68.255-172.707
					C1146.208,2512.694,1153.562,2501.88,1164.292,2501.88z"/>
				<path style="fill:#7D97F4;" d="M1298.427,2597.576c4.126,12.819,1.078,25.268-6.808,27.806
					c-7.886,2.539-17.623-5.795-21.749-18.614c-4.126-12.818-1.078-25.267,6.808-27.805
					C1284.563,2576.423,1294.301,2584.757,1298.427,2597.576z"/>
			</g>
		</g>
	</g>
</g>
</svg>
