<svg width="102" height="61" viewBox="0 0 102 61" fill="none" xmlns="http://www.w3.org/2000/svg">
<g clip-path="url(#clip0_1667_19477)">
<path d="M100.911 57.9668H5.97858C5.73437 57.9665 5.50025 57.8694 5.32757 57.6967C5.15489 57.5241 5.05776 57.2899 5.0575 57.0457V0.921083C5.05776 0.676878 5.15489 0.442752 5.32757 0.270073C5.50025 0.0973943 5.73437 0.000266585 5.97858 0H100.911C101.156 0.000266585 101.39 0.0973947 101.563 0.270074C101.735 0.442752 101.832 0.676878 101.833 0.921083V57.0457C101.832 57.2899 101.735 57.5241 101.563 57.6967C101.39 57.8694 101.156 57.9665 100.911 57.9668ZM5.97858 0.368433C5.83206 0.368593 5.69158 0.42687 5.58797 0.530477C5.48436 0.634084 5.42609 0.77456 5.42593 0.921083V57.0457C5.42609 57.1922 5.48436 57.3327 5.58797 57.4363C5.69158 57.5399 5.83206 57.5982 5.97858 57.5984H100.911C101.058 57.5982 101.198 57.5399 101.302 57.4363C101.406 57.3327 101.464 57.1922 101.464 57.0457V0.921083C101.464 0.77456 101.406 0.634085 101.302 0.530477C101.198 0.42687 101.058 0.368593 100.911 0.368433H5.97858Z" fill="#E6E6E6"/>
<path d="M44.2942 4.48252C44.1027 4.48573 43.9201 4.56408 43.7857 4.70068C43.6514 4.83727 43.5761 5.02118 43.5761 5.21276C43.5761 5.40434 43.6514 5.58825 43.7857 5.72485C43.9201 5.86145 44.1027 5.93979 44.2942 5.943H62.6036C62.7969 5.94585 62.9834 5.87196 63.1223 5.73753C63.2612 5.60309 63.3411 5.41907 63.3446 5.2258C63.348 5.03252 63.2747 4.84576 63.1407 4.70645C63.0067 4.56713 62.823 4.48662 62.6297 4.48256L62.6276 4.48252C62.6196 4.48239 62.6116 4.48239 62.6036 4.48252H44.2942Z" fill="#3F3D56"/>
<path d="M66.7557 4.2789C66.7288 4.30585 66.7136 4.34239 66.7136 4.3805C66.7136 4.41861 66.7288 4.45516 66.7557 4.48211L67.3726 5.09898H65.8515C65.8134 5.0991 65.777 5.11429 65.7501 5.14122C65.7233 5.16816 65.7082 5.20464 65.7082 5.24268C65.7082 5.28072 65.7233 5.3172 65.7501 5.34414C65.777 5.37107 65.8134 5.38626 65.8515 5.38638H67.3726L66.7557 6.00324C66.7424 6.01658 66.7318 6.03242 66.7246 6.04986C66.7173 6.06729 66.7136 6.08598 66.7136 6.10485C66.7136 6.12372 66.7173 6.1424 66.7246 6.15984C66.7318 6.17727 66.7424 6.19311 66.7557 6.20646C66.7691 6.2198 66.7849 6.23039 66.8023 6.23761C66.8198 6.24483 66.8384 6.24855 66.8573 6.24855C66.8762 6.24855 66.8949 6.24483 66.9123 6.23761C66.9297 6.23039 66.9456 6.2198 66.9589 6.20646L67.8211 5.34429C67.848 5.31734 67.8632 5.28079 67.8632 5.24268C67.8632 5.20457 67.848 5.16802 67.8211 5.14107L66.9589 4.2789C66.9456 4.26556 66.9297 4.25498 66.9123 4.24775C66.8949 4.24053 66.8762 4.23682 66.8573 4.23682C66.8385 4.23682 66.8198 4.24053 66.8023 4.24775C66.7849 4.25498 66.7691 4.26556 66.7557 4.2789Z" fill="#E6E6E6"/>
<path d="M40.1344 4.2789C40.1613 4.30585 40.1765 4.3424 40.1765 4.38051C40.1765 4.41861 40.1613 4.45516 40.1344 4.48211L39.5175 5.09899H41.0386C41.0575 5.09891 41.0763 5.10257 41.0938 5.10975C41.1113 5.11692 41.1271 5.12748 41.1406 5.14081C41.154 5.15415 41.1646 5.16999 41.1719 5.18744C41.1791 5.2049 41.1829 5.22361 41.1829 5.24251C41.1829 5.26142 41.1792 5.28014 41.172 5.29761C41.1648 5.31507 41.1542 5.33095 41.1408 5.34431C41.1274 5.35767 41.1115 5.36827 41.0941 5.37549C41.0766 5.38271 41.0579 5.38641 41.039 5.38638H39.5175L40.1344 6.00324C40.1477 6.01659 40.1583 6.03243 40.1655 6.04986C40.1728 6.0673 40.1765 6.08598 40.1765 6.10485C40.1765 6.12372 40.1728 6.14241 40.1655 6.15984C40.1583 6.17728 40.1477 6.19312 40.1344 6.20646C40.121 6.21981 40.1052 6.23039 40.0878 6.23761C40.0703 6.24483 40.0516 6.24855 40.0328 6.24855C40.0139 6.24855 39.9952 6.24483 39.9778 6.23761C39.9604 6.23039 39.9445 6.21981 39.9312 6.20646L39.069 5.3443C39.0421 5.31735 39.0269 5.2808 39.0269 5.24269C39.0269 5.20457 39.0421 5.16802 39.069 5.14107L39.9312 4.27891C39.9581 4.25196 39.9947 4.23682 40.0328 4.23682C40.0709 4.23681 40.1074 4.25196 40.1344 4.2789Z" fill="#E6E6E6"/>
<path d="M5.00256 61.0582C4.17009 61.0582 3.35631 60.8114 2.66414 60.3489C1.97197 59.8864 1.43249 59.229 1.11391 58.4599C0.795342 57.6908 0.711989 56.8445 0.874395 56.028C1.0368 55.2116 1.43768 54.4616 2.02632 53.8729C2.61497 53.2843 3.36494 52.8834 4.18142 52.721C4.99789 52.5586 5.84419 52.642 6.61329 52.9605C7.38239 53.2791 8.03975 53.8186 8.50225 54.5108C8.96474 55.2029 9.2116 56.0167 9.2116 56.8492C9.2116 57.9655 8.76815 59.0361 7.9788 59.8254C7.18945 60.6148 6.11887 61.0582 5.00256 61.0582Z" fill="#6C63FF"/>
<path d="M6.66333 56.4342H5.41776V55.1886C5.41776 55.0785 5.37401 54.9729 5.29615 54.895C5.21828 54.8172 5.11268 54.7734 5.00256 54.7734C4.89244 54.7734 4.78684 54.8172 4.70897 54.895C4.63111 54.9729 4.58736 55.0785 4.58736 55.1886V56.4342H3.34177C3.23165 56.4342 3.12605 56.478 3.04818 56.5558C2.97032 56.6337 2.92657 56.7393 2.92657 56.8494C2.92657 56.9595 2.97032 57.0651 3.04818 57.143C3.12605 57.2209 3.23165 57.2646 3.34177 57.2646H4.58736V58.5102C4.58736 58.6203 4.6311 58.7259 4.70897 58.8038C4.78683 58.8817 4.89244 58.9254 5.00256 58.9254C5.11267 58.9254 5.21828 58.8817 5.29615 58.8038C5.37401 58.7259 5.41776 58.6203 5.41776 58.5102V57.2646H6.66333C6.77345 57.2646 6.87906 57.2209 6.95692 57.143C7.03478 57.0651 7.07853 56.9595 7.07853 56.8494C7.07853 56.7393 7.03478 56.6337 6.95692 56.5558C6.87906 56.478 6.77345 56.4342 6.66333 56.4342Z" fill="white"/>
<path d="M25.3827 11.959H12.7332V20.5558H25.3827V11.959Z" fill="#F1F1F1"/>
<path d="M42.5763 11.959H29.9268V20.5558H42.5763V11.959Z" fill="#F1F1F1"/>
<path d="M59.7698 11.959H47.1202V20.5558H59.7698V11.959Z" fill="#F1F1F1"/>
<path d="M76.9634 11.959H64.3138V20.5558H76.9634V11.959Z" fill="#F1F1F1"/>
<path d="M94.1569 11.959H81.5074V20.5558H94.1569V11.959Z" fill="#F1F1F1"/>
<path d="M25.4291 27.0649H12.7795V35.6617H25.4291V27.0649Z" fill="#F1F1F1"/>
<path d="M42.6226 27.0649H29.9731V35.6617H42.6226V27.0649Z" fill="#F1F1F1"/>
<path d="M59.8162 27.0649H47.1666V35.6617H59.8162V27.0649Z" fill="#F1F1F1"/>
<path d="M77.0098 27.0649H64.3602V35.6617H77.0098V27.0649Z" fill="#F1F1F1"/>
<path d="M94.2032 27.0649H81.5537V35.6617H94.2032V27.0649Z" fill="#F1F1F1"/>
<path d="M25.4755 42.1704H12.8259V50.7672H25.4755V42.1704Z" fill="#F1F1F1"/>
<path d="M42.669 42.1704H30.0195V50.7672H42.669V42.1704Z" fill="#F1F1F1"/>
<path d="M59.8626 42.1704H47.213V50.7672H59.8626V42.1704Z" fill="#F1F1F1"/>
<path d="M77.0561 42.1704H64.4066V50.7672H77.0561V42.1704Z" fill="#F1F1F1"/>
<path d="M94.2496 42.1704H81.6001V50.7672H94.2496V42.1704Z" fill="#F1F1F1"/>
<path d="M49.7457 16.2575C50.6275 16.2575 51.3423 15.5427 51.3423 14.661C51.3423 13.7793 50.6275 13.0645 49.7457 13.0645C48.864 13.0645 48.1492 13.7793 48.1492 14.661C48.1492 15.5427 48.864 16.2575 49.7457 16.2575Z" fill="#6C63FF"/>
<path d="M32.3065 31.363C33.1882 31.363 33.903 30.6482 33.903 29.7665C33.903 28.8847 33.1882 28.1699 32.3065 28.1699C31.4248 28.1699 30.71 28.8847 30.71 29.7665C30.71 30.6482 31.4248 31.363 32.3065 31.363Z" fill="#6C63FF"/>
<path d="M49.7457 46.469C50.6275 46.469 51.3423 45.7542 51.3423 44.8724C51.3423 43.9907 50.6275 43.2759 49.7457 43.2759C48.864 43.2759 48.1492 43.9907 48.1492 44.8724C48.1492 45.7542 48.864 46.469 49.7457 46.469Z" fill="#6C63FF"/>
<path d="M67.3077 31.363C68.1894 31.363 68.9042 30.6482 68.9042 29.7665C68.9042 28.8847 68.1894 28.1699 67.3077 28.1699C66.4259 28.1699 65.7111 28.8847 65.7111 29.7665C65.7111 30.6482 66.4259 31.363 67.3077 31.363Z" fill="#3F3D56"/>
<path d="M84.3784 31.363C85.2601 31.363 85.975 30.6482 85.975 29.7665C85.975 28.8847 85.2601 28.1699 84.3784 28.1699C83.4967 28.1699 82.7819 28.8847 82.7819 29.7665C82.7819 30.6482 83.4967 31.363 84.3784 31.363Z" fill="#3F3D56"/>
<path d="M32.3065 46.469C33.1882 46.469 33.903 45.7542 33.903 44.8724C33.903 43.9907 33.1882 43.2759 32.3065 43.2759C31.4248 43.2759 30.71 43.9907 30.71 44.8724C30.71 45.7542 31.4248 46.469 32.3065 46.469Z" fill="#3F3D56"/>
</g>
<defs>
<clipPath id="clip0_1667_19477">
<rect width="101" height="61" fill="white" transform="translate(0.5)"/>
</clipPath>
</defs>
</svg>
